<svg width="138" height="91" viewBox="0 0 138 91" xmlns="http://www.w3.org/2000/svg" xmlns:sketch="http://www.bohemiancoding.com/sketch/ns"><title>autentica-logo</title><desc>Created with Sketch.</desc><g sketch:type="MSShapeGroup" fill="none"><path d="M123.749 5.095c-5.059 0-9.176 4.107-9.176 9.156 0 5.048 4.117 9.155 9.176 9.155 5.057 0 9.173-4.107 9.173-9.155 0-5.05-4.115-9.156-9.173-9.156m0 22.617c-7.438 0-13.489-6.039-13.489-13.461 0-7.424 6.052-13.462 13.489-13.462 7.438 0 13.487 6.038 13.487 13.462 0 7.422-6.049 13.461-13.487 13.461" fill="#FF6500"/><path d="M78.496 5.149l2.353 3.162s1.757-2.734 4.839-2.564c3.895.216 8.819 3.333 12.93 3.249 4.109-.087 6.208-2.821 7.02-3.89l-2.44-3.29s-1.454 2.65-4.965 2.607c-3.683-.045-7.921-3.205-12.501-3.29-4.581-.085-6.55 2.949-7.235 4.017m0 9.059l2.353 3.162s1.757-2.735 4.839-2.564c3.895.215 8.819 3.333 12.93 3.248 4.109-.086 6.208-2.821 7.02-3.889l-2.44-3.29s-1.454 2.65-4.965 2.607c-3.683-.046-7.921-3.206-12.501-3.291-4.581-.085-6.55 2.949-7.235 4.017m0 9.058l2.353 3.162s1.757-2.735 4.839-2.564c3.895.216 8.819 3.333 12.93 3.248 4.109-.086 6.208-2.821 7.02-3.89l-2.44-3.29s-1.454 2.65-4.965 2.608c-3.683-.045-7.921-3.205-12.501-3.291-4.581-.085-6.55 2.95-7.235 4.017" fill="#FF6500"/><path d="M136.578 38.854h-25.145v-4.426h25.145v4.426zm0 8.973h-25.145v-4.426h25.145v4.426zm0 8.973h-25.145v-4.427h25.145v4.427z" fill="#FF6500"/><path d="M102.464 41.647l-.056.079c-1.316 1.866-2.719 3.03-4.177 3.481.223-.229.443-.469.651-.736 1.823-2.341 2.425-5.479 1.79-9.327l-.016-.095-4.143.681.016.095c.419 2.542.132 4.52-.842 5.898.005-.547-.033-1.119-.145-1.714-.546-2.913-2.498-5.444-5.804-7.522l-.083-.051-2.237 3.545.081.052c1.936 1.216 3.173 2.554 3.7 3.983-.24-.211-.493-.418-.771-.612-2.425-1.688-5.621-2.13-9.424-1.302l-.095.02.896 4.093.094-.02c2.222-.484 4.055-.394 5.434.254-.329.018-.656.048-.978.103-2.929.495-5.498 2.401-7.635 5.663l-.053.081 3.514 2.294.053-.08c1.252-1.91 2.612-3.121 4.055-3.622-.217.237-.428.484-.626.758-1.741 2.401-2.235 5.558-1.469 9.381l.019.095 4.117-.822-.018-.095c-.45-2.237-.329-4.052.346-5.418.012.318.036.642.087.976.445 2.931 2.309 5.528 5.543 7.718l.08.055 2.358-3.467-.08-.055c-1.892-1.28-3.082-2.66-3.56-4.109.234.22.479.436.75.639 1.702 1.275 3.822 1.921 6.298 1.921.964 0 1.998-.1 3.074-.295l.095-.018-.753-4.122-.096.017c-2.237.406-4.062.254-5.418-.438.327-.007.654-.028.976-.072 2.944-.393 5.577-2.21 7.827-5.399l.055-.079-3.432-2.412z" fill="#FF6500"/><path d="M38.962 72.174v-3.875l3.919-.86v4.736h3.574l-1.008 3.232h-2.565v9.652c0 1.437.743 2.155 2.23 2.155h.899v3.087c-.335.12-.665.214-.989.287-.324.072-.665.107-1.025.107-.67 0-1.312-.089-1.922-.268-.613-.18-1.146-.46-1.601-.844-.455-.381-.822-.879-1.096-1.49-.276-.611-.415-1.346-.415-2.208v-13.71z" fill="#575756"/><path d="M51.65 79.101h9.242c0-.573-.109-1.1-.322-1.578-.217-.48-.523-.886-.919-1.22-.395-.336-.863-.598-1.403-.79-.539-.192-1.131-.287-1.778-.287-.601 0-1.188.072-1.761.215-.577.144-1.092.378-1.548.699-.456.325-.821.732-1.097 1.221-.276.49-.413 1.072-.413 1.741zm0 3.338c0 .694.09 1.334.269 1.92.18.586.479 1.09.899 1.508.419.419.977.747 1.672.987.695.239 1.558.359 2.59.359.91 0 1.618-.132 2.123-.394.501-.264 1.042-.67 1.617-1.222l3.236 1.33c-.768 1.291-1.786 2.243-3.056 2.853-1.271.609-2.637.914-4.099.914-3 0-5.277-.778-6.834-2.332-1.56-1.555-2.336-3.852-2.336-6.891v-1.292c0-.288.01-.563.035-.826.048-1.149.312-2.19.791-3.123.48-.933 1.115-1.735 1.907-2.405.79-.669 1.701-1.184 2.733-1.543 1.03-.359 2.121-.538 3.273-.538 1.316 0 2.493.209 3.524.628 1.031.419 1.905 1.005 2.624 1.758.719.754 1.264 1.663 1.636 2.728.372 1.064.559 2.243.559 3.535v2.046h-13.162z" fill="#575756"/><path d="M87.476 72.174v-3.875l3.917-.86v4.736h6.748l.052 3.232h-6.8v9.652c0 1.437.743 2.155 2.23 2.155h.899v3.087c-.336.12-.665.214-.989.287-.322.072-.665.107-1.025.107-.671 0-1.313-.089-1.924-.268-.61-.18-1.144-.46-1.599-.844-.456-.381-.82-.879-1.097-1.49-.276-.611-.413-1.346-.413-2.208v-13.71z" fill="#575756"/><path d="M97.825 72.174h3.92v18.089h-3.92v-18.089zm1.871-7.285c.599 0 1.103.192 1.51.575.43.43.646.932.646 1.505 0 .624-.215 1.125-.646 1.508-.408.383-.911.574-1.51.574-.623 0-1.128-.192-1.511-.574-.432-.383-.648-.884-.648-1.508 0-.573.216-1.075.648-1.505.383-.383.888-.575 1.511-.575z" fill="#575756"/><path d="M113.486 71.745c1.078 0 2.144.192 3.2.575 1.055.382 1.965.957 2.733 1.722l-2.445 2.404c-.648-.503-1.229-.831-1.743-.986-.516-.156-1.146-.234-1.888-.234-1.823 0-3.146.46-3.973 1.381-.827.922-1.242 2.255-1.242 4.002v.575c0 .933.084 1.771.251 2.511.169.743.452 1.37.846 1.887.395.513.928.914 1.6 1.201.671.287 1.511.432 2.517.432.742 0 1.413-.072 2.015-.215.596-.144 1.197-.453 1.796-.935l2.302 2.227c-.79.837-1.72 1.446-2.786 1.83-1.067.382-2.176.573-3.326.573-1.558 0-2.902-.227-4.028-.681-1.127-.456-2.05-1.102-2.769-1.94-.721-.835-1.254-1.83-1.6-2.977-.348-1.15-.522-2.428-.522-3.84v-.683c0-2.75.796-4.911 2.392-6.478 1.593-1.567 3.818-2.35 6.671-2.35" fill="#575756"/><path d="M12.672 84.665c-.385.214-.822.472-1.313.772-.491.299-1.002.579-1.528.843-.527.265-1.055.485-1.583.665-.528.179-1.008.268-1.438.268-.791 0-1.45-.132-1.978-.394-.528-.265-.791-.813-.791-1.651 0-.766.198-1.353.592-1.761.397-.405.978-.609 1.745-.609h6.294v1.867zm.395 4.593c.076.324.19.588.413.989l3.746-.867c-.217-.496-.323-.809-.401-1.109-.155-.61-.233-1.32-.233-2.135v-7.824c0-1.053-.208-1.985-.629-2.799-.419-.813-.984-1.503-1.691-2.063-.706-.563-1.523-.987-2.444-1.276-.924-.287-1.89-.43-2.896-.43-1.366 0-2.614.155-3.74.466-1.128.311-2.278.801-3.453 1.472l1.692 2.906c.91-.477 1.778-.83 2.606-1.058.827-.227 1.793-.342 2.895-.342 1.222.025 2.153.324 2.787.898.636.575.954 1.519.954 2.835v.432h-6.329c-.864 0-1.673.131-2.428.393-.756.265-1.416.646-1.978 1.15-.564.502-1.001 1.112-1.313 1.831-.311.717-.466 1.519-.466 2.404 0 .837.174 1.597.522 2.28.346.68.81 1.267 1.383 1.758.575.491 1.241.867 1.996 1.131.755.262 1.539.394 2.356.394 1.222 0 2.355-.245 3.397-.734 1.042-.492 2.054-1.096 3.038-1.814.048.337.121.706.216 1.112z" fill="#575756"/><path d="M31.931 89.242c.105.345.219.629.445 1.075l3.744-.871-.07-.164-.003-.003c-.131-.323-.232-.628-.305-.914-.169-.575-.253-1.317-.253-2.227v-14.391l-3.918.98v11.617c-.312.359-.642.708-.991 1.041-.347.335-.72.64-1.113.915-.398.276-.81.496-1.242.664-.431.166-.898.252-1.403.252-.646 0-1.17-.089-1.565-.268-.395-.18-.7-.444-.916-.79-.216-.346-.355-.76-.413-1.239-.06-.478-.092-1.03-.092-1.651v-11.521l-3.919.98v11.366c0 2.25.587 3.914 1.763 4.989 1.174 1.077 2.888 1.615 5.142 1.615 1.03 0 1.935-.245 2.714-.734.781-.492 1.517-1.096 2.212-1.814 0 .336.059.699.18 1.095" fill="#575756"/><path d="M133.414 84.665c-.385.214-.822.472-1.314.772-.491.299-1.001.579-1.528.843-.529.265-1.055.485-1.582.665-.527.179-1.008.268-1.438.268-.792 0-1.451-.132-1.978-.394-.527-.265-.792-.813-.792-1.651 0-.766.197-1.353.594-1.761.395-.405.977-.609 1.744-.609h6.294v1.867zm.394 4.593c.082.345.157.613.353 1.036l2.97-.688.748-.224-.314-1.111c-.156-.61-.234-1.32-.234-2.135v-7.824c0-1.053-.21-1.985-.631-2.799-.419-.813-.983-1.503-1.689-2.063-.707-.563-1.522-.987-2.445-1.276-.922-.287-1.888-.43-2.895-.43-1.366 0-2.612.155-3.74.466-1.127.311-2.277.801-3.452 1.472l1.692 2.906c.911-.477 1.78-.83 2.606-1.058.828-.227 1.792-.342 2.894-.342 1.224.025 2.153.324 2.788.898.635.575.954 1.519.954 2.835v.432h-6.331c-.862 0-1.671.131-2.427.393-.755.265-1.414.646-1.978 1.15-.564.502-1.001 1.112-1.313 1.831-.312.717-.467 1.519-.467 2.404 0 .837.174 1.597.521 2.28.346.68.81 1.267 1.385 1.758.575.491 1.24.867 1.996 1.131.754.262 1.54.394 2.354.394 1.224 0 2.355-.245 3.399-.734 1.044-.492 2.055-1.096 3.039-1.814.049.337.12.706.215 1.112z" fill="#575756"/><path d="M83.447 75.351c-.348-.803-.833-1.465-1.457-1.993-.624-.526-1.362-.926-2.212-1.202-.851-.274-1.793-.412-2.823-.412-.409 0-.846.048-1.312.142-.467.097-.93.24-1.385.432-.455.192-.893.419-1.312.68-.419.264-.786.55-1.097.862h-.215c-.097-.406-.216-.777-.36-1.113-.111-.258-.249-.517-.389-.775l-3.849.891c.434.82.661 1.603.749 2.056.096.49.143 1.059.143 1.705v13.638h3.92v-13.278c.263-.287.581-.545.953-.773.371-.227.76-.413 1.17-.556.408-.143.827-.256 1.258-.341.432-.083.839-.126 1.224-.126 2.396 0 3.594 1.233 3.594 3.698v11.376h3.921v-12.167c0-1.027-.175-1.943-.521-2.745" fill="#575756"/></g></svg>